# xmcd
#
# Track frame offsets:
#	150
#	16200
#	32957
#	44775
#	60529
#	76684
#	90835
#	105129
#	124333
#	144813
#	158793
#
# Disc length: 2261 seconds
#
# Revision: 3
# Processed by: cddbd v1.5.2PL0 Copyright (c) Steve Scherf et al.
# Submitted via: audiograbber 1.83.01
#
DISCID=7a08d30b
DTITLE=Various Artist - CDX 522
DYEAR=2011
DGENRE=Country
TTITLE0=Billy Currington - Love Done Gone
TTITLE1=Burns and Poe - Second Chance
TTITLE2=Deborah Allen - Anything Other Than Love
TTITLE3=Aly'an - Going Home
TTITLE4=Corey Wagar - Hurricane
TTITLE5=Glen Templeton - I Could Be The One
TTITLE6=Scott Lindsey - Set Em Up Shoot Em Down
TTITLE7=Cerrito - Table For Two
TTITLE8=Mark Vigil Project - You Better Know Why
TTITLE9=Randolph Owens - Carolina
TTITLE10=Tj Maddux - Fairy Tales Can Come True
EXTD=
EXTT0=
EXTT1=
EXTT2=
EXTT3=
EXTT4=
EXTT5=
EXTT6=
EXTT7=
EXTT8=
EXTT9=
EXTT10=
PLAYORDER=
